#N canvas 289 198 481 339 10;
#X obj 36 29 usrcmidi/indextomode;
#X text 166 29 - CONVERSION FROM SCALE DEGREE TO MIDI VALUE;
#X text 34 54 Takes scale degree values 1-7 and outputs the corresponding
modal note for the currently set mode. Right inlet sets the mode \,
1-7 from ionian to locrian.;
#X obj 36 262 usrcmidi/indextomode;
#X floatatom 36 283 5 0 0 0 - - -, f 5;
#X floatatom 36 241 5 0 0 0 - - -, f 5;
#X floatatom 153 241 5 0 0 0 - - -, f 5;
#X msg 153 180 1;
#X msg 36 111 1;
#X msg 46 131 2;
#X msg 56 151 3;
#X msg 66 171 4;
#X text 64 111 try scrolling through scale degrees;
#X text 151 160 set mode;
#X text 181 180 ionian;
#X text 191 200 dorian;
#X text 201 220 phrygian;
#X msg 163 200 2;
#X msg 173 220 3;
#X connect 3 0 4 0;
#X connect 5 0 3 0;
#X connect 6 0 3 1;
#X connect 7 0 6 0;
#X connect 8 0 5 0;
#X connect 9 0 5 0;
#X connect 10 0 5 0;
#X connect 11 0 5 0;
#X connect 17 0 6 0;
#X connect 18 0 6 0;
